<?xml version="1.0" encoding="UTF-8"?>
<!DOCTYPE svg PUBLIC "-//W3C//DTD SVG 1.1//EN" "http://www.w3.org/Graphics/SVG/1.1/DTD/svg11.dtd">
<!-- Creator: CorelDRAW 2018 (64 Bit Versão de avaliação) -->
<svg xmlns="http://www.w3.org/2000/svg" xml:space="preserve" width="50px" height="50px" version="1.1" style="shape-rendering:geometricPrecision; text-rendering:geometricPrecision; image-rendering:optimizeQuality; fill-rule:evenodd; clip-rule:evenodd"
viewBox="0 0 50 50"
 xmlns:xlink="http://www.w3.org/1999/xlink">
 <defs>
  <style type="text/css">
   <![CDATA[
    .fil0 {fill:#FF5500}
   ]]>
  </style>
 </defs>
 <g id="Camada_x0020_1">
  <metadata id="CorelCorpID_0Corel-Layer"/>
  <g id="_3022186845616">
   <g>
    <path class="fil0" d="M23.86 5.68l1.12 2.46 -3.55 -1.36 0.33 2.1 -18.62 11.92 -1 12.21 1.78 -0.18c3.61,4.08 0.76,11.49 0.76,11.49l3.14 0 3.01 -6.16c0,0 -4.05,-7.17 -0.76,-12.2 -0.36,7.91 4.27,11.44 4.27,11.44l3.44 -0.92 -0.19 1.67 5.76 -1.65c0,0 -6.52,-5.65 -3.56,-12.51l1.49 -0.88c-1.58,11.62 7.03,11.18 8.94,21.21l2.55 0 -5.03 -21.86 1.73 0.97c0,0 1.28,3.68 2.28,6.53 0.68,1.96 2.56,3.25 4.63,3.19l2.86 -0.09c1.15,-0.87 1.6,-1.76 1.66,-2.58 0.03,-0.49 -0.06,-0.94 -0.2,-1.31 -0.73,1.05 -2.08,2.3 -4.34,2.38l-0.05 -1.64c2.77,-0.08 3.58,-2.67 3.58,-2.67 0.09,-0.28 0.33,-0.49 0.62,-0.56 0.28,-0.06 0.58,0.05 0.78,0.28 0,0 1.37,1.6 1.23,3.63 -0.05,0.75 -0.29,1.57 -0.9,2.39l1.85 -0.06 4.39 -4.68c-6.78,-4.55 -5.37,-9.42 -4.29,-14.34l-6.22 -2.6c0.21,1.97 0.19,3.61 0.19,3.61l-1.63 -0.02c0,0 0.06,-3.86 -0.75,-6.65 -0.23,-0.77 -0.49,-1.49 -0.89,-1.93 -4.32,3.3 -3.09,9.56 -3.09,9.56l-1.59 0.3c0,0 -0.75,-4.05 0.95,-7.71l-6.68 -2.78 0 0zm22.62 0l-5.43 4.58 3.28 1.82 2.15 -6.4zm-12.65 13.97c0,0 0.95,0.02 1.9,0.47 0.95,0.44 1.92,1.3 1.94,2.96 -5.25,0.4 -3.84,-3.43 -3.84,-3.43zm1.06 16.71l1.74 7.91 2.76 0 -0.75 -7.53 -3.75 -0.38 0 0z"/>
   </g>
  </g>
 </g>
</svg>
